HIERARCHY
ROOT Hips
{
	OFFSET 0.000000 0.000000 0.000000
	CHANNELS 6 Xposition Yposition Zposition Yrotation Xrotation Zrotation
	JOINT Chest
	{
		OFFSET 0.000000 -0.009281 11.569106
		CHANNELS 3 Yrotation Xrotation Zrotation
		JOINT Chest2
		{
			OFFSET -0.000000 0.016865 9.269641
			CHANNELS 3 Yrotation Xrotation Zrotation
			JOINT Chest3
			{
				OFFSET -0.000000 0.000001 8.374491
				CHANNELS 3 Yrotation Xrotation Zrotation
				JOINT Chest4
				{
					OFFSET -0.000000 0.000001 8.374493
					CHANNELS 3 Yrotation Xrotation Zrotation
					JOINT Neck
					{
						OFFSET -0.000000 0.000002 12.152554
						CHANNELS 3 Yrotation Xrotation Zrotation
						JOINT Head
						{
							OFFSET -0.000000 0.040101 7.802319
							CHANNELS 3 Yrotation Xrotation Zrotation
							End Site
							{
								OFFSET -0.000000 0.020947 14.853096
							}
						}
					}
					JOINT RightCollar
					{
						OFFSET 2.894404 0.000001 6.791374
						CHANNELS 3 Yrotation Xrotation Zrotation
						JOINT RightShoulder
						{
							OFFSET 13.574684 0.000001 0.000000
							CHANNELS 3 Yrotation Xrotation Zrotation
							JOINT RightElbow
							{
								OFFSET 23.923903 0.000002 0.000000
								CHANNELS 3 Yrotation Xrotation Zrotation
								JOINT RightWrist
								{
									OFFSET 19.846718 0.012767 0.000000
									CHANNELS 3 Yrotation Xrotation Zrotation
									End Site
									{
										OFFSET 14.973145 0.000001 0.000000
									}
								}
							}
						}
					}
					JOINT LeftCollar
					{
						OFFSET -2.894404 0.000001 6.791374
						CHANNELS 3 Yrotation Xrotation Zrotation
						JOINT LeftShoulder
						{
							OFFSET -13.574684 -0.000001 0.000000
							CHANNELS 3 Yrotation Xrotation Zrotation
							JOINT LeftElbow
							{
								OFFSET -23.923903 -0.000002 0.000000
								CHANNELS 3 Yrotation Xrotation Zrotation
								JOINT LeftWrist
								{
									OFFSET -19.846718 0.012763 0.000000
									CHANNELS 3 Yrotation Xrotation Zrotation
									End Site
									{
										OFFSET -14.973145 -0.000001 0.000000
									}
								}
							}
						}
					}
				}
			}
		}
	}
	JOINT RightHip
	{
		OFFSET 9.469263 0.004643 0.045487
		CHANNELS 3 Yrotation Xrotation Zrotation
		JOINT RightKnee
		{
			OFFSET 0.000000 0.002661 -40.478676
			CHANNELS 3 Yrotation Xrotation Zrotation
			JOINT RightAnkle
			{
				OFFSET 0.000000 0.049106 -35.224068
				CHANNELS 3 Yrotation Xrotation Zrotation
				JOINT RightToe
				{
					OFFSET -0.000001 12.539529 -6.151390
					CHANNELS 3 Yrotation Xrotation Zrotation
					End Site
					{
						OFFSET -0.000001 5.044994 -1.291870
					}
				}
			}
		}
	}
	JOINT LeftHip
	{
		OFFSET -9.469263 0.004641 0.045487
		CHANNELS 3 Yrotation Xrotation Zrotation
		JOINT LeftKnee
		{
			OFFSET 0.000000 0.002661 -40.478676
			CHANNELS 3 Yrotation Xrotation Zrotation
			JOINT LeftAnkle
			{
				OFFSET 0.000000 0.049106 -35.224068
				CHANNELS 3 Yrotation Xrotation Zrotation
				JOINT LeftToe
				{
					OFFSET -0.000001 12.539529 -6.151390
					CHANNELS 3 Yrotation Xrotation Zrotation
					End Site
					{
						OFFSET -0.000001 5.044994 -1.291870
					}
				}
			}
		}
	}
}
MOTION
Frames: 16
Frame Time: 0.016667
-13.278822 28.577406 84.731636 -2.780814 1.940204 -96.253915 -2.453375 -3.141379 -1.143634 -1.157434 -1.529643 -0.256687 -1.157434 -1.529643 -0.256686 -0.868667 -1.146752 -0.195402 4.461852 -19.213809 -8.046175 5.614430 0.560011 -13.305070 8.680271 5.076557 -1.699835 47.445141 -20.407917 -10.944870 20.571606 -39.505435 43.911604 -27.810287 38.600401 66.769908 -6.981897 4.412142 -4.632396 -43.300100 -6.619646 14.352876 -44.783611 -56.092963 -17.781841 17.724156 19.812314 -58.747926 -0.433351 6.765134 -20.156870 1.281126 -2.272183 -15.509826 3.696214 -3.714581 12.327283 -0.193333 0.820265 -0.135974 -7.125285 -11.065530 -10.584980 0.575875 -13.413322 8.643552 9.959934 -10.209489 1.777147 -8.837784 31.303536 -1.923850 
-13.098126 28.334230 84.747261 -2.772748 1.940910 -96.179958 -2.444385 -3.161300 -1.144558 -1.154321 -1.544063 -0.253083 -1.154321 -1.544064 -0.253083 -0.866328 -1.157576 -0.192718 4.431139 -19.111286 -8.025477 5.557454 0.748196 -13.277930 8.692987 5.094768 -1.675022 47.437832 -20.417836 -10.974259 20.570288 -39.424108 43.962950 -27.813768 38.616257 66.766513 -6.987153 4.455612 -4.637391 -43.285364 -6.642613 14.309937 -44.737896 -56.056414 -17.849309 17.710793 19.767276 -58.765711 -0.470836 6.856182 -20.248862 1.489915 -2.896850 -15.476599 3.545852 -3.256053 12.300769 -0.122507 0.874280 -0.144674 -7.100261 -10.844175 -10.774092 0.534407 -13.948525 8.930514 10.516712 -10.715028 1.791125 -9.705535 32.076173 -2.167420 
-12.914326 28.085398 84.756096 -2.764880 1.932853 -96.085223 -2.419093 -3.185929 -1.132167 -1.151288 -1.551660 -0.248654 -1.151288 -1.551660 -0.248653 -0.864044 -1.163282 -0.189402 4.407633 -19.025159 -8.018073 5.510631 0.906208 -13.272753 8.713410 5.105905 -1.666177 47.424070 -20.404328 -11.019144 20.546070 -39.355502 44.026689 -27.855636 38.669594 66.742635 -6.998094 4.465099 -4.648619 -43.285467 -6.641346 14.265012 -44.637301 -55.984646 -17.964712 17.689261 19.677507 -58.799821 -0.520450 6.943061 -20.372395 1.731534 -3.546832 -15.494489 3.367295 -2.756100 12.193446 -0.052867 0.924821 -0.155368 -7.070820 -10.627366 -10.993177 0.500380 -14.497167 9.208705 11.055898 -11.195640 1.830796 -10.582340 32.826043 -2.406548 
-12.732759 27.836977 84.759712 -2.737307 1.912975 -95.950497 -2.385304 -3.189672 -1.161601 -1.146707 -1.554351 -0.258892 -1.146707 -1.554351 -0.258894 -0.860637 -1.165283 -0.197074 4.379259 -18.955233 -7.995471 5.460886 1.034256 -13.241205 8.739438 5.122735 -1.665156 47.399956 -20.411407 -11.037937 20.525584 -39.291643 44.078646 -27.865505 38.696266 66.736706 -7.004601 4.458860 -4.640253 -43.281256 -6.622145 14.226269 -44.516591 -55.932030 -18.096685 17.661056 19.626253 -58.818311 -0.602769 7.061173 -20.504798 2.047040 -4.269452 -15.628914 3.175403 -2.155348 12.125331 -0.000191 0.932564 -0.171810 -7.046752 -10.381310 -11.270593 0.504136 -15.071895 9.378595 11.635435 -11.693962 1.969155 -11.556659 33.562388 -2.690869 
-12.585930 27.604425 84.754990 -2.665603 1.901897 -95.782113 -2.371266 -3.147619 -1.197686 -1.139678 -1.556746 -0.255093 -1.139678 -1.556746 -0.255094 -0.855356 -1.167090 -0.194212 4.370096 -18.889192 -8.000551 5.437755 1.155779 -13.254181 8.770977 5.207726 -1.737001 47.382798 -20.401708 -11.105158 20.521264 -39.286015 44.117507 -27.894392 38.739785 66.706558 -7.006866 4.487816 -4.689575 -43.268869 -6.598603 14.242690 -44.418441 -55.941008 -18.195983 17.639795 19.601221 -58.815879 -0.751076 7.324230 -20.629657 2.406909 -5.164584 -15.760112 2.977677 -1.562827 12.165219 0.034215 0.999509 -0.183177 -7.060985 -10.049763 -11.692236 0.532378 -15.699188 9.485376 12.229784 -12.209554 2.187123 -12.573143 34.278670 -2.960647 
-12.467464 27.375929 84.734001 -2.630433 1.838017 -95.663691 -2.328819 -3.138851 -1.205370 -1.124271 -1.561095 -0.260371 -1.124272 -1.561095 -0.260370 -0.843816 -1.170347 -0.198140 4.355381 -18.820581 -7.995024 5.407646 1.281925 -13.249576 8.796807 5.297526 -1.762657 47.360791 -20.382775 -11.184894 20.558366 -39.280824 44.151306 -27.896118 38.751751 66.688751 -7.014763 4.561747 -4.630140 -43.247542 -6.626372 14.265750 -44.345102 -55.947278 -18.267520 17.627907 19.516185 -58.785683 -0.848698 7.628396 -20.621010 2.744189 -6.169338 -15.831730 2.792342 -0.920688 12.028752 0.069875 1.057815 -0.189954 -7.044716 -9.716835 -12.084945 0.531638 -16.401618 9.596046 12.883546 -12.640991 2.455957 -13.674618 34.923365 -3.296124 
-12.364449 27.134642 84.698540 -2.604276 1.767060 -95.522873 -2.290577 -3.146700 -1.207695 -1.100854 -1.571179 -0.259395 -1.100854 -1.571179 -0.259395 -0.826256 -1.177921 -0.197365 4.348630 -18.736401 -8.012848 5.383503 1.436850 -13.285428 8.815872 5.362097 -1.813069 47.324011 -20.330941 -11.266289 20.580647 -39.270856 44.233876 -27.895939 38.758626 66.675146 -7.011798 4.591865 -4.600424 -43.247238 -6.633787 14.250321 -44.252867 -55.907045 -18.349001 17.613805 19.388049 -58.744237 -0.925003 7.893857 -20.664930 3.060400 -7.100602 -15.873746 2.599736 -0.286465 11.833554 0.111116 1.083871 -0.186529 -7.013461 -9.399258 -12.466166 0.526325 -17.098342 9.770065 13.578638 -12.997586 2.644849 -14.814047 35.496671 -3.651294 
-12.254033 26.891426 84.655792 -2.562036 1.706341 -95.358983 -2.266892 -3.155040 -1.244153 -1.076295 -1.587034 -0.260264 -1.076295 -1.587034 -0.260264 -0.807845 -1.189822 -0.197982 4.347291 -18.635698 -8.029641 5.368346 1.622773 -13.317897 8.856567 5.441022 -1.822026 47.273488 -20.310257 -11.366004 20.561499 -39.233409 44.368106 -27.918241 38.804190 66.647155 -6.994668 4.624621 -4.533866 -43.280163 -6.628851 14.221348 -44.096319 -55.887497 -18.469875 17.610483 19.325342 -58.708181 -0.981077 8.164117 -20.733126 3.381622 -7.994935 -16.014323 2.398860 0.334402 11.941575 0.124864 1.084428 -0.195337 -6.985094 -9.086429 -12.835291 0.526330 -17.754636 10.023763 14.306092 -13.355139 2.740435 -15.991643 36.059168 -4.026029 
-12.138960 26.650822 84.609444 -2.516418 1.647004 -95.204415 -2.238799 -3.158516 -1.277658 -1.055327 -1.605302 -0.259223 -1.055326 -1.605303 -0.259222 -0.792124 -1.203534 -0.197179 4.353040 -18.527672 -8.049359 5.364645 1.822692 -13.353572 8.897643 5.504510 -1.820320 47.220018 -20.306561 -11.448156 20.517299 -39.181083 44.507869 -27.909876 38.824093 66.657674 -6.992144 4.655324 -4.510052 -43.321909 -6.628683 14.207193 -43.902100 -55.863212 -18.625470 17.607738 19.282577 -58.705421 -1.065653 8.473633 -20.685844 3.768181 -8.956446 -16.341735 2.204431 1.016151 11.851498 0.117280 1.080362 -0.212160 -6.952943 -8.758450 -13.147855 0.507213 -18.423899 10.316020 15.035907 -13.715050 2.779126 -17.171751 36.637872 -4.384376 
-12.034447 26.407057 84.558853 -2.482608 1.590912 -95.064629 -2.209269 -3.166733 -1.292470 -1.039910 -1.626365 -0.259730 -1.039910 -1.626366 -0.259730 -0.780572 -1.219337 -0.197552 4.367053 -18.411193 -8.072509 5.374308 2.038741 -13.393023 8.925813 5.518995 -1.789139 47.177718 -20.237381 -11.488521 20.483456 -39.161228 44.606101 -27.941544 38.907910 66.646315 -6.994223 4.665359 -4.521087 -43.353635 -6.584262 14.215086 -43.734043 -55.814479 -18.783584 17.596994 19.200862 -58.718002 -1.176263 8.780634 -20.429531 4.192655 -9.935260 -16.864048 2.053098 1.672991 11.943884 0.094599 1.088287 -0.219812 -6.912469 -8.390408 -13.411984 0.431618 -19.168325 10.654020 15.793294 -14.041835 2.785244 -18.377170 37.220126 -4.755450 
-11.931517 26.148930 84.503922 -2.443449 1.516665 -94.893608 -2.170612 -3.159030 -1.347146 -1.024823 -1.649652 -0.258951 -1.024824 -1.649652 -0.258951 -0.769264 -1.236809 -0.196968 4.389662 -18.297259 -8.097187 5.399381 2.250664 -13.432424 8.951651 5.550407 -1.774327 47.144117 -20.194050 -11.510305 20.487390 -39.140628 44.661190 -27.952174 38.963736 66.661588 -6.990311 4.669623 -4.519198 -43.374566 -6.564163 14.187682 -43.601342 -55.751969 -18.922382 17.605738 19.125305 -58.719915 -1.208954 9.042906 -20.192925 4.598480 -10.771105 -17.381566 1.885249 2.288870 11.935090 0.068654 1.083919 -0.232895 -6.825308 -7.965115 -13.643731 0.353541 -19.994551 11.024203 16.519316 -14.368285 2.671150 -19.562169 37.859862 -5.114905 
-11.848915 25.875551 84.442978 -2.321241 1.481812 -94.632715 -2.175916 -3.065884 -1.477700 -1.006809 -1.667553 -0.261630 -1.006809 -1.667554 -0.261630 -0.755767 -1.250239 -0.198958 4.416705 -18.191536 -8.127952 5.431170 2.447536 -13.481479 8.970896 5.580508 -1.781084 47.110745 -20.184845 -11.529300 20.491845 -39.123935 44.733795 -27.963821 39.000319 66.671696 -6.970883 4.660049 -4.507959 -43.401887 -6.520943 14.151821 -43.471063 -55.728733 -19.046660 17.601660 19.057758 -58.682793 -1.278986 9.350958 -20.147948 4.987033 -11.545006 -17.729491 1.717997 2.907993 11.932625 0.052101 1.049976 -0.251685 -6.730615 -7.424425 -13.876616 0.330273 -20.861078 11.362710 17.160259 -14.617563 2.338807 -20.595640 38.496049 -5.346229 
-11.788536 25.599016 84.374786 -2.144394 1.476728 -94.351796 -2.222467 -2.916951 -1.639083 -0.984216 -1.680956 -0.261343 -0.984217 -1.680957 -0.261342 -0.738828 -1.260300 -0.198702 4.443582 -18.092418 -8.160800 5.462419 2.632099 -13.534348 8.983831 5.606680 -1.745997 47.063483 -20.163243 -11.568472 20.517274 -39.115407 44.819343 -27.978996 39.007733 66.662967 -6.944769 4.661076 -4.488262 -43.437957 -6.486798 14.115087 -43.354964 -55.704427 -19.138743 17.581416 18.947896 -58.630057 -1.361137 9.741574 -20.181860 5.376275 -12.324489 -17.950859 1.483126 3.552525 11.789491 0.063363 1.007047 -0.280934 -6.646372 -6.808149 -14.049242 0.368499 -21.744175 11.588694 17.741760 -14.835823 1.883677 -21.520014 39.142424 -5.492407 
-11.752178 25.316334 84.300179 -1.970071 1.487467 -94.092126 -2.297387 -2.769908 -1.754864 -0.961367 -1.691755 -0.253129 -0.961367 -1.691756 -0.253129 -0.721674 -1.268423 -0.192496 4.481786 -17.995008 -8.212987 5.508169 2.813776 -13.619020 8.996893 5.665061 -1.782757 46.986842 -20.189576 -11.582222 20.603179 -39.102464 44.873134 -28.015653 39.021424 66.627799 -6.924891 4.682244 -4.502698 -43.457683 -6.550412 14.045092 -43.252760 -55.644288 -19.217871 17.580955 18.882480 -58.581037 -1.473158 10.124455 -20.172059 5.840641 -13.060027 -18.104125 1.095452 4.204825 11.518465 0.144236 0.954065 -0.299250 -6.598974 -6.155565 -14.190568 0.446087 -22.668237 11.644126 18.287903 -15.136944 1.567297 -22.495841 39.823572 -5.732324 
-11.707330 25.010355 84.220909 -1.866073 1.450424 -93.904617 -2.328454 -2.703371 -1.815900 -0.943037 -1.702741 -0.246497 -0.943037 -1.702742 -0.246498 -0.707913 -1.276679 -0.187488 4.519398 -17.895297 -8.259462 5.554480 2.999848 -13.693425 9.011306 5.723707 -1.823561 46.906276 -20.222010 -11.570912 20.695186 -39.099394 44.909532 -28.026418 39.007282 66.618557 -6.908769 4.717976 -4.499502 -43.466955 -6.609886 13.985175 -43.171474 -55.604758 -19.267361 17.579616 18.792874 -58.553443 -1.439944 10.415207 -20.064936 6.208745 -13.686972 -18.202495 0.572532 4.783769 11.249792 0.309463 0.924326 -0.315453 -6.532110 -5.522378 -14.347731 0.493045 -23.688086 11.679015 18.827797 -15.572030 1.371515 -23.580999 40.630821 -6.158440 
-11.623125 24.688818 84.136200 -1.989246 1.448322 -93.677848 -2.396180 -2.863376 -1.904231 -0.932451 -1.714954 -0.248496 -0.932451 -1.714954 -0.248495 -0.699984 -1.285840 -0.188976 4.555252 -17.796054 -8.300916 5.599214 3.185047 -13.759194 9.021094 5.737819 -1.808506 46.867764 -20.197469 -11.581194 20.728945 -39.121087 44.961790 -28.055919 39.031686 66.603244 -6.891191 4.726096 -4.495694 -43.458130 -6.666673 13.895630 -43.119725 -55.585545 -19.299937 17.578708 18.735979 -58.544085 -1.568719 10.454685 -20.094589 6.672668 -14.421243 -18.066569 0.026416 5.362176 11.158577 0.408851 0.969080 -0.672302 -6.535070 -5.044540 -14.670645 0.515847 -24.847282 11.815021 19.251059 -16.195439 1.149380 -24.649227 41.680198 -6.680982 
